<svg height="636" viewBox="-26 0 477 477.961" width="636" xmlns="http://www.w3.org/2000/svg"><path d="M335.77 235.914v-127.59a9.994 9.994 0 00-3.192-7.324L226.734 2.676A9.996 9.996 0 00219.93 0H44.48C20.191.027.508 19.71.48 44v335.793c.028 24.289 19.711 43.973 44 44h155.383c30.578 45.125 87.14 64.836 139.14 48.488s87.11-64.883 86.364-119.386c-.746-54.504-37.168-102.063-89.597-116.98zM230.672 33.63l70.976 65.937h-46.976c-13.246-.015-23.985-10.754-24-24zM44.48 403.793c-13.25-.016-23.984-10.754-24-24V44c.016-13.25 10.75-23.984 24-24h166.192v55.566c.027 24.29 19.71 43.973 44 44h61.101v112.418a123.395 123.395 0 00-96.023 30.621 123.376 123.376 0 00-41.156 92 122.775 122.775 0 0010.234 49.188zM301.984 458c-57.101 0-103.394-46.293-103.394-103.395 0-57.101 46.293-103.394 103.394-103.394 57.106 0 103.395 46.293 103.395 103.394-.063 57.079-46.317 103.329-103.395 103.395zm0 0"/><path d="M354.488 342.945h-40.843v-40.843c0-5.524-4.477-10-10-10-5.524 0-10 4.476-10 10v40.843H252.8c-5.524 0-10 4.477-10 10 0 5.524 4.476 10 10 10h40.844v46.375c0 5.524 4.476 10 10 10 5.523 0 10-4.476 10-10v-46.375h40.843c5.524 0 10-4.476 10-10 0-5.52-4.476-10-10-10zm0 0"/></svg>